<?xml version="1.0" encoding="UTF-8" standalone="no"?>
<!DOCTYPE svg PUBLIC "-//W3C//DTD SVG 1.1//EN" "http://www.w3.org/Graphics/SVG/1.1/DTD/svg11.dtd">
<svg width="100%" height="100%" viewBox="0 0 48 48" version="1.1" xmlns="http://www.w3.org/2000/svg" xmlns:xlink="http://www.w3.org/1999/xlink" xml:space="preserve" xmlns:serif="http://www.serif.com/" style="fill-rule:evenodd;clip-rule:evenodd;stroke-linejoin:round;stroke-miterlimit:1.41421;">
    <g transform="matrix(1,0,0,1,-1.70091,-2.27518)">
        <ellipse cx="25.253" cy="26.275" rx="23.552" ry="22.884" style="fill:rgb(69,69,69);"/>
    </g>
    <g transform="matrix(1.12332,0,0,1.28203,-5.91954,-10.0654)">
        <path d="M26.635,7.851C38.427,7.851 48,16.239 48,26.571C48,36.903 38.427,45.292 26.635,45.292C14.843,45.292 5.27,36.903 5.27,26.571C5.27,16.239 14.843,7.851 26.635,7.851ZM26.635,10.566C36.717,10.566 44.902,17.738 44.902,26.571C44.902,35.405 36.717,42.577 26.635,42.577C16.553,42.577 8.368,35.405 8.368,26.571C8.368,17.738 16.553,10.566 26.635,10.566Z" style="fill:rgb(105,106,201);"/>
    </g>
    <g transform="matrix(1.29514,0,0,1.20421,-11.3454,-6.77461)">
        <path d="M27.291,11.314C34.629,11.314 40.587,17.695 40.587,25.556C40.587,33.416 34.629,39.798 27.291,39.798C19.953,39.798 13.995,33.416 13.995,25.556C13.995,17.695 19.953,11.314 27.291,11.314ZM27.291,13.664C33.418,13.664 38.393,18.992 38.393,25.556C38.393,32.119 33.418,37.448 27.291,37.448C21.163,37.448 16.189,32.119 16.189,25.556C16.189,18.992 21.163,13.664 27.291,13.664Z" style="fill:rgb(105,198,201);"/>
    </g>
    <g transform="matrix(1.57576,0,0,1.39068,-14.6514,-9.70871)">
        <path d="M24.529,17.289C28.159,17.289 31.106,20.403 31.106,24.239C31.106,28.075 28.159,31.189 24.529,31.189C20.899,31.189 17.952,28.075 17.952,24.239C17.952,20.403 20.899,17.289 24.529,17.289ZM24.529,19.452C27.029,19.452 29.059,21.597 29.059,24.239C29.059,26.881 27.029,29.026 24.529,29.026C22.029,29.026 19.999,26.881 19.999,24.239C19.999,21.597 22.029,19.452 24.529,19.452Z" style="fill:rgb(94,224,82);"/>
    </g>
    <g transform="matrix(0.738909,0,0,1,9.39781,-0.0348796)">
        <rect x="28.637" y="21.367" width="7.611" height="5.336" style="fill:rgb(69,69,69);"/>
    </g>
    <g transform="matrix(0.427908,0.108048,-0.112778,0.44664,15.5207,13.0051)">
        <path d="M44.076,11.349L51.05,21.332L37.101,21.332L44.076,11.349Z" style="fill:rgb(94,224,82);"/>
    </g>
</svg>
