<?xml version="1.0" encoding="UTF-8" standalone="no"?>
<svg
   xmlns:dc="http://purl.org/dc/elements/1.1/"
   xmlns:cc="http://creativecommons.org/ns#"
   xmlns:rdf="http://www.w3.org/1999/02/22-rdf-syntax-ns#"
   xmlns:svg="http://www.w3.org/2000/svg"
   xmlns="http://www.w3.org/2000/svg"
   xmlns:xlink="http://www.w3.org/1999/xlink"
   id="svg8737"
   version="1.1"
   viewBox="0 0 160.71818 123.30413"
   height="466.03131"
   width="607.43884">
  <defs
     id="defs8731">
    <linearGradient
       id="linearGradient5531">
      <stop
         id="stop5527"
         offset="0"
         style="stop-color:#000000;stop-opacity:1;" />
      <stop
         id="stop5529"
         offset="1"
         style="stop-color:#000000;stop-opacity:0;" />
    </linearGradient>
    <filter
       id="filter10200"
       style="color-interpolation-filters:sRGB">
      <feColorMatrix
         id="feColorMatrix10188"
         in="SourceGraphic"
         result="color"
         values="1 0 0 0 0 0 1 0 0 0 0 0 1 0 0 0 0 0 0.85 0" />
      <feGaussianBlur
         id="feGaussianBlur10190"
         result="blur"
         stdDeviation="7"
         in="SourceAlpha" />
      <feSpecularLighting
         id="feSpecularLighting10194"
         result="specular"
         lighting-color="#89ffff"
         surfaceScale="5"
         specularConstant="0.89999998"
         specularExponent="25"
         in="blur">
        <feDistantLight
           id="feDistantLight10192"
           azimuth="225"
           elevation="60" />
      </feSpecularLighting>
      <feComposite
         k4="0"
         k1="0"
         id="feComposite10196"
         result="composite1"
         operator="arithmetic"
         k2="1"
         k3="1"
         in2="SourceGraphic"
         in="specular" />
      <feComposite
         id="feComposite10198"
         result="composite2"
         operator="atop"
         in2="color"
         in="composite1" />
    </filter>
    <filter
       id="filter5367"
       style="color-interpolation-filters:sRGB"
       height="1.5"
       y="-0.25"
       width="1.5"
       x="-0.25">
      <feGaussianBlur
         id="feGaussianBlur5355"
         stdDeviation="5"
         result="result8" />
      <feTurbulence
         id="feTurbulence5357"
         seed="20"
         result="result7"
         type="fractalNoise"
         numOctaves="2"
         baseFrequency="0.015" />
      <feComposite
         id="feComposite5359"
         in2="result8"
         result="result6"
         operator="in"
         in="SourceGraphic" />
      <feComposite
         k4="0"
         k2="0"
         k1="0"
         id="feComposite5361"
         k3="1.7"
         in2="result7"
         result="result2"
         operator="arithmetic"
         in="result6" />
      <feComposite
         id="feComposite5363"
         result="fbSourceGraphic"
         in="result2"
         operator="in"
         in2="result6" />
      <feComposite
         k4="0"
         k1="0"
         id="feComposite5365"
         result="result9"
         operator="arithmetic"
         k2="1.5"
         k3="0.3"
         in="fbSourceGraphic"
         in2="SourceGraphic" />
    </filter>
    <filter
       id="filter5487"
       style="color-interpolation-filters:sRGB">
      <feGaussianBlur
         id="feGaussianBlur5479"
         result="fbSourceGraphic"
         stdDeviation="5" />
      <feGaussianBlur
         id="feGaussianBlur5481"
         result="result1"
         in="SourceGraphic"
         stdDeviation="0.01" />
      <feComposite
         k4="0"
         k1="0"
         id="feComposite5483"
         result="result2"
         k3="0.5"
         k2="0.5"
         in="fbSourceGraphic"
         operator="arithmetic"
         in2="result1" />
      <feBlend
         id="feBlend5485"
         result="result3"
         mode="normal"
         in2="fbSourceGraphic" />
    </filter>
    <filter
       id="filter5499"
       style="color-interpolation-filters:sRGB">
      <feColorMatrix
         id="feColorMatrix5489"
         result="colormatrix"
         values="1 0 0 0 0 0 1 0 0 0 0 0 1 0 0 -0.2125 -0.7154 -0.0721 1 0 "
         in="SourceGraphic" />
      <feComposite
         k1="0"
         id="feComposite5491"
         result="composite"
         k4="0"
         k3="0"
         k2="1"
         operator="arithmetic"
         in2="colormatrix"
         in="SourceGraphic" />
      <feGaussianBlur
         id="feGaussianBlur5493"
         result="blur1"
         stdDeviation="5 0.01" />
      <feGaussianBlur
         id="feGaussianBlur5495"
         result="blur2"
         stdDeviation="0.01 5"
         in="composite" />
      <feBlend
         id="feBlend5497"
         result="blend"
         mode="darken"
         in2="blur1"
         in="blur2" />
    </filter>
    <linearGradient
       gradientUnits="userSpaceOnUse"
       y2="-348.17609"
       x2="-1085.1309"
       y1="-348.17609"
       x1="-1152.084"
       id="linearGradient5533"
       xlink:href="#linearGradient5531" />
    <filter
       id="filter5367-6"
       style="color-interpolation-filters:sRGB"
       height="1.5"
       y="-0.25"
       width="1.5"
       x="-0.25">
      <feGaussianBlur
         id="feGaussianBlur5355-1"
         stdDeviation="5"
         result="result8" />
      <feTurbulence
         id="feTurbulence5357-5"
         seed="20"
         result="result7"
         type="fractalNoise"
         numOctaves="2"
         baseFrequency="0.015" />
      <feComposite
         id="feComposite5359-8"
         in2="result8"
         result="result6"
         operator="in"
         in="SourceGraphic" />
      <feComposite
         id="feComposite5361-9"
         k3="1.7"
         in2="result7"
         result="result2"
         operator="arithmetic"
         in="result6"
         k1="0"
         k2="0"
         k4="0" />
      <feComposite
         id="feComposite5363-7"
         result="fbSourceGraphic"
         in="result2"
         operator="in"
         in2="result6" />
      <feComposite
         id="feComposite5365-9"
         result="result9"
         operator="arithmetic"
         k2="1.5"
         k3="0.3"
         in="fbSourceGraphic"
         in2="SourceGraphic"
         k1="0"
         k4="0" />
    </filter>
    <filter
       id="filter5367-0"
       style="color-interpolation-filters:sRGB"
       height="1.5"
       y="-0.25"
       width="1.5"
       x="-0.25">
      <feGaussianBlur
         id="feGaussianBlur5355-4"
         stdDeviation="5"
         result="result8" />
      <feTurbulence
         id="feTurbulence5357-2"
         seed="20"
         result="result7"
         type="fractalNoise"
         numOctaves="2"
         baseFrequency="0.015" />
      <feComposite
         id="feComposite5359-1"
         in2="result8"
         result="result6"
         operator="in"
         in="SourceGraphic" />
      <feComposite
         id="feComposite5361-7"
         k3="1.7"
         in2="result7"
         result="result2"
         operator="arithmetic"
         in="result6"
         k1="0"
         k2="0"
         k4="0" />
      <feComposite
         id="feComposite5363-1"
         result="fbSourceGraphic"
         in="result2"
         operator="in"
         in2="result6" />
      <feComposite
         id="feComposite5365-4"
         result="result9"
         operator="arithmetic"
         k2="1.5"
         k3="0.3"
         in="fbSourceGraphic"
         in2="SourceGraphic"
         k1="0"
         k4="0" />
    </filter>
  </defs>
  <metadata
     id="metadata8734">
    <rdf:RDF>
      <cc:Work
         rdf:about="">
        <dc:format>image/svg+xml</dc:format>
        <dc:type
           rdf:resource="http://purl.org/dc/dcmitype/StillImage" />
        <dc:title></dc:title>
      </cc:Work>
    </rdf:RDF>
  </metadata>
  <g
     style="display:inline"
     transform="translate(-57.651459,-37.745396)"
     id="layer6">
    <path
       transform="rotate(-90,139.61417,98.061114)"
       id="path9536"
       d="m 137.09475,163.42341 c 27.44674,0 51.60111,-6.46709 52.50103,-43.44054 1.49538,-61.435474 -25.80169,-90.491284 -53.24843,-90.491284 -27.44673,0 -51.378912,28.49998 -49.322801,91.787804 1.20094,36.96505 22.623471,42.14402 50.070201,42.14402 z M 94.141395,106.30066 a 2.990713,2.9637882 0 0 1 -2.991012,-2.96408 2.990713,2.9637882 0 0 1 2.991012,-2.96338 2.990713,2.9637882 0 0 1 2.990284,2.96338 2.990713,2.9637882 0 0 1 -2.990284,2.96408 z m 86.722785,-0.71846 a 2.990713,2.9637882 0 0 1 -2.99029,-2.96409 2.990713,2.9637882 0 0 1 2.99029,-2.964084 2.990713,2.9637882 0 0 1 2.991,2.964084 2.990713,2.9637882 0 0 1 -2.991,2.96409 z"
       style="fill:#f8c6e6;fill-opacity:1;stroke:#000000;stroke-width:0.38291663;stroke-miterlimit:4;stroke-dasharray:none;stroke-opacity:1;filter:url(#filter5499)" />
    <path
       transform="rotate(-90,139.22859,97.770924)"
       id="path8775-8"
       d="m 117.26826,145.33711 c 1.72773,0.0218 4.29393,0.0358 8.46844,0.0446 8.34901,0.0176 23.13087,0.0141 30.52198,0.0125 7.39111,-10e-4 7.39101,-10e-4 7.96372,-0.0186 0.57272,-0.0169 1.71939,-0.0502 2.75574,-0.19394 1.03636,-0.14378 1.96444,-0.39818 2.69369,-0.69732 0.72924,-0.29916 1.26144,-0.64417 1.68291,-1.00051 0.42147,-0.35632 0.7333,-0.7252 0.99019,-1.13756 0.2569,-0.41238 0.45991,-0.86965 0.61959,-1.49036 0.15969,-0.62071 0.27634,-1.40558 0.41724,-2.39755 0.14089,-0.99195 0.3062,-2.19186 0.46216,-3.64215 0.15596,-1.4503 0.30267,-3.15165 0.39948,-5.38841 0.0967,-2.23675 0.14352,-5.00942 0.1963,-8.50191 0.0527,-3.49252 0.11177,-7.70557 0.0818,-13.06527 -0.03,-5.35972 -0.14869,-11.866701 -0.32358,-17.020101 -0.1749,-5.15339 -0.40611,-8.95448 -0.71112,-11.83859 -0.30501,-2.8841 -0.6839,-4.85285 -1.07648,-6.54802 -0.39258,-1.69517 -0.79887,-3.118 -1.38111,-4.54205 -0.58224,-1.42405 -1.3454,-2.85834 -2.40888,-4.39121 -1.0635,-1.53285 -2.43664,-3.18219 -3.82337,-4.56961 -1.38671,-1.38741 -2.78714,-2.5128 -4.23272,-3.47501 -1.40704,-0.9366 -2.85302,-1.71497 -4.09236,-2.33986 -0.72922,-1.29652 -2.0818,-2.52876 -3.40756,-3.46404 -1.95384,-1.26787 -3.88352,-1.94301 -7.59206,-2.70772 l -9.10391,-0.0254 c -1.76148,1.07444 -3.08215,2.1146 -4.1827,2.93866 l -0.78478,0.56485 c -0.0972,10e-4 -0.18021,0.007 -0.27566,0.01 -1.82908,0.0389 -3.30528,0.11297 -4.61798,0.29817 -1.31271,0.18519 -2.05563,0.47253 -3.20457,0.83381 -1.14893,0.36128 -2.29785,0.78803 -3.38152,1.23724 -1.08366,0.44919 -2.10069,0.92006 -3.20793,1.55464 -1.10724,0.63456 -2.31408,1.43871 -3.47335,2.30951 -1.1593,0.87081 -2.29008,1.82165 -3.21252,2.73082 -0.92245,0.9092 -1.64552,1.78875 -2.27572,2.65011 -0.6302,0.86136 -1.18873,1.72933 -1.72567,2.65272 -0.53694,0.92338 -1.04737,1.89243 -1.46538,2.81041 -0.418,0.91796 -0.7333,1.76595 -1.01621,2.61515 -0.28289,0.84919 -0.53262,1.69824 -0.71636,2.54825 -0.18374,0.85002 -0.3009,1.69695 -0.40965,2.76726 -0.10868,1.07028 -0.20856,2.35692 -0.31857,3.58965 -0.11009,1.23274 -0.23042,2.41101 -0.36867,4.35286 -0.13819,1.94185 -0.29431,4.64734 -0.35295,8.80574 -0.0586,4.15842 -0.0199,9.768971 -0.0424,14.822771 -0.0225,5.05381 -0.10617,9.55004 -0.0733,13.33827 0.0327,3.78823 0.18211,6.86668 0.27131,9.24738 0.0892,2.3807 0.11833,4.06178 0.23633,5.66755 0.11805,1.60574 0.32487,3.13509 0.51472,4.09757 0.18986,0.96249 0.36226,1.35675 0.55678,1.78421 0.19454,0.42744 0.41064,0.88757 0.73699,1.34878 0.32636,0.46121 0.76327,0.92406 1.36585,1.26754 0.60259,0.34349 1.37156,0.56809 2.15192,0.73853 0.78036,0.17046 1.57314,0.28698 2.65144,0.40546 1.07828,0.11851 2.44305,0.23929 4.08342,0.31897 0.82018,0.0399 1.7093,0.0696 3.43704,0.0914 z"
       style="display:inline;fill:#fdf1f5;fill-opacity:1;stroke:none;stroke-width:0.3684122px;stroke-linecap:butt;stroke-linejoin:miter;stroke-opacity:1;filter:url(#filter5487)" />
    <flowRoot
       transform="matrix(0.26458333,0,0,0.26458333,47.046177,4.6362746)"
       style="font-style:normal;font-weight:normal;font-size:40px;line-height:1.25;font-family:sans-serif;letter-spacing:0px;word-spacing:0px;fill:#000000;fill-opacity:1;stroke:none"
       id="flowRoot461"
       xml:space="preserve"><flowRegion
         id="flowRegion463"><rect
           y="252.76704"
           x="234.35539"
           height="207.08127"
           width="278.80209"
           id="rect465" /></flowRegion><flowPara
         id="flowPara473"
         style="font-style:normal;font-variant:normal;font-weight:normal;font-stretch:normal;font-size:64px;line-height:1.25;font-family:'Segoe UI Historic';-inkscape-font-specification:'Segoe UI Historic'">OMNICOR</flowPara></flowRoot>  </g>
  <g
     transform="translate(-10.605283,-33.109121)"
     style="display:inline"
     id="layer2" />
</svg>
