<?xml version="1.0" encoding="UTF-8" standalone="no"?>
<!-- Created with Inkscape (http://www.inkscape.org/) -->

<svg
   xmlns:dc="http://purl.org/dc/elements/1.1/"
   xmlns:cc="http://creativecommons.org/ns#"
   xmlns:rdf="http://www.w3.org/1999/02/22-rdf-syntax-ns#"
   xmlns:svg="http://www.w3.org/2000/svg"
   xmlns="http://www.w3.org/2000/svg"
   xmlns:sodipodi="http://sodipodi.sourceforge.net/DTD/sodipodi-0.dtd"
   xmlns:inkscape="http://www.inkscape.org/namespaces/inkscape"
   width="512"
   height="512"
   viewBox="0 0 135.46666 135.46667"
   version="1.1"
   id="svg8737"
   inkscape:version="0.92.4 (5da689c313, 2019-01-14)"
   sodipodi:docname="pod-drawing.svg">
  <defs
     id="defs8731">
    <inkscape:path-effect
       effect="simplify"
       id="path-effect9414"
       is_visible="true"
       steps="10"
       threshold="0.002"
       smooth_angles="20"
       helper_size="5"
       simplify_individual_paths="true"
       simplify_just_coalesce="false" />
    <inkscape:path-effect
       effect="bspline"
       id="path-effect8777"
       is_visible="true"
       weight="33.333333"
       steps="2"
       helper_size="0"
       apply_no_weight="true"
       apply_with_weight="true"
       only_selected="false" />
    <inkscape:path-effect
       effect="bspline"
       id="path-effect8753"
       is_visible="true"
       weight="33.333333"
       steps="2"
       helper_size="0"
       apply_no_weight="true"
       apply_with_weight="true"
       only_selected="false" />
    <inkscape:path-effect
       effect="bspline"
       id="path-effect8753-2"
       is_visible="true"
       weight="33.333333"
       steps="2"
       helper_size="0"
       apply_no_weight="true"
       apply_with_weight="true"
       only_selected="false" />
    <filter
       style="color-interpolation-filters:sRGB;"
       inkscape:label="Matte Jelly"
       id="filter10200">
      <feColorMatrix
         values="1 0 0 0 0 0 1 0 0 0 0 0 1 0 0 0 0 0 0.85 0"
         result="color"
         in="SourceGraphic"
         id="feColorMatrix10188" />
      <feGaussianBlur
         in="SourceAlpha"
         stdDeviation="7"
         result="blur"
         id="feGaussianBlur10190" />
      <feSpecularLighting
         in="blur"
         specularExponent="25"
         specularConstant="0.9"
         surfaceScale="5"
         lighting-color="rgb(137,255,255)"
         result="specular"
         id="feSpecularLighting10194">
        <feDistantLight
           elevation="60"
           azimuth="225"
           id="feDistantLight10192" />
      </feSpecularLighting>
      <feComposite
         in="specular"
         in2="SourceGraphic"
         k3="1"
         k2="1"
         operator="arithmetic"
         result="composite1"
         id="feComposite10196" />
      <feComposite
         in="composite1"
         in2="color"
         operator="atop"
         result="composite2"
         id="feComposite10198" />
    </filter>
  </defs>
  <sodipodi:namedview
     id="base"
     pagecolor="#ffffff"
     bordercolor="#666666"
     borderopacity="1.0"
     inkscape:pageopacity="0.0"
     inkscape:pageshadow="2"
     inkscape:zoom="0.9899495"
     inkscape:cx="-131.14376"
     inkscape:cy="126.45671"
     inkscape:document-units="mm"
     inkscape:current-layer="layer6"
     showgrid="false"
     inkscape:window-width="1920"
     inkscape:window-height="1147"
     inkscape:window-x="1672"
     inkscape:window-y="-8"
     inkscape:window-maximized="1"
     units="px"
     fit-margin-top="0"
     fit-margin-left="0"
     fit-margin-right="0"
     fit-margin-bottom="0">
    <inkscape:grid
       type="xygrid"
       id="grid9626"
       originx="-140.81242"
       originy="-267.22961" />
  </sodipodi:namedview>
  <metadata
     id="metadata8734">
    <rdf:RDF>
      <cc:Work
         rdf:about="">
        <dc:format>image/svg+xml</dc:format>
        <dc:type
           rdf:resource="http://purl.org/dc/dcmitype/StillImage" />
        <dc:title />
      </cc:Work>
    </rdf:RDF>
  </metadata>
  <g
     inkscape:groupmode="layer"
     id="layer6"
     inkscape:label="Layer 4"
     transform="translate(-70.40621,-27.918521)">
    <path
       style="fill:#bfbfbf;fill-opacity:1;stroke:#000000;stroke-width:0.38291663;stroke-miterlimit:4;stroke-dasharray:none;stroke-opacity:1"
       d="m 71.311918,95.274415 c 0,27.446745 6.46709,51.601115 43.440542,52.501035 61.43547,1.49538 90.49128,-25.80169 90.49128,-53.248435 0,-27.44673 -28.49998,-51.378909 -91.7878,-49.322798 -36.965052,1.20094 -42.144022,22.623468 -42.144022,50.070198 z M 128.43467,52.321063 a 2.9637882,2.990713 0 0 1 2.96408,-2.991012 2.9637882,2.990713 0 0 1 2.96338,2.991012 2.9637882,2.990713 0 0 1 -2.96338,2.990284 2.9637882,2.990713 0 0 1 -2.96408,-2.990284 z m 0.71846,86.722787 a 2.9637882,2.990713 0 0 1 2.96409,-2.99029 2.9637882,2.990713 0 0 1 2.96408,2.99029 2.9637882,2.990713 0 0 1 -2.96408,2.991 2.9637882,2.990713 0 0 1 -2.96409,-2.991 z"
       id="path9536"
       inkscape:connector-curvature="0" />
    <path
       style="display:inline;fill:#ffffff;fill-opacity:1;stroke:#000000;stroke-width:0.3684122px;stroke-linecap:butt;stroke-linejoin:miter;stroke-opacity:1"
       d="m 88.722452,75.543318 c -0.0218,1.72773 -0.0358,4.29393 -0.0446,8.46844 -0.0176,8.34901 -0.0141,23.130872 -0.0125,30.521982 0.001,7.39111 0.001,7.39101 0.0186,7.96372 0.0169,0.57272 0.0502,1.71939 0.19394,2.75574 0.14378,1.03636 0.39818,1.96444 0.69732,2.69369 0.29916,0.72924 0.64417,1.26144 1.00051,1.68291 0.35632,0.42147 0.7252,0.7333 1.13756,0.99019 0.41238,0.2569 0.86965,0.45991 1.49036,0.61959 0.62071,0.15969 1.40558,0.27634 2.39755,0.41724 0.99195,0.14089 2.19186,0.3062 3.64215,0.46216 1.450298,0.15596 3.151648,0.30267 5.388408,0.39948 2.23675,0.0967 5.00942,0.14352 8.50191,0.1963 3.49252,0.0527 7.70557,0.11177 13.06527,0.0818 5.35972,-0.03 11.8667,-0.14869 17.0201,-0.32358 5.15339,-0.1749 8.95448,-0.40611 11.83859,-0.71112 2.8841,-0.30501 4.85285,-0.6839 6.54802,-1.07648 1.69517,-0.39258 3.118,-0.79887 4.54205,-1.38111 1.42405,-0.58224 2.85834,-1.3454 4.39121,-2.40888 1.53285,-1.0635 3.18219,-2.43664 4.56961,-3.82337 1.38741,-1.38671 2.5128,-2.78714 3.47501,-4.23272 0.9366,-1.40704 1.71497,-2.85302 2.33986,-4.09236 1.29652,-0.72922 2.52876,-2.0818 3.46404,-3.40756 1.26787,-1.95384 1.94301,-3.88352 2.70772,-7.59206 l 0.0254,-9.103912 c -1.07444,-1.76148 -2.1146,-3.08215 -2.93866,-4.1827 l -0.56485,-0.78478 c -0.001,-0.0972 -0.007,-0.18021 -0.01,-0.27566 -0.0389,-1.82908 -0.11297,-3.30528 -0.29817,-4.61798 -0.18519,-1.31271 -0.47253,-2.05563 -0.83381,-3.20457 -0.36128,-1.14893 -0.78803,-2.29785 -1.23724,-3.38152 -0.44919,-1.08366 -0.92006,-2.10069 -1.55464,-3.20793 -0.63456,-1.10724 -1.43871,-2.31408 -2.30951,-3.47335 -0.87081,-1.1593 -1.82165,-2.29008 -2.73082,-3.21252 -0.9092,-0.92245 -1.78875,-1.64552 -2.65011,-2.27572 -0.86136,-0.6302 -1.72933,-1.18873 -2.65272,-1.72567 -0.92338,-0.53694 -1.89243,-1.04737 -2.81041,-1.46538 -0.91796,-0.418 -1.76595,-0.7333 -2.61515,-1.01621 -0.84919,-0.28289 -1.69824,-0.53262 -2.54825,-0.71636 -0.85002,-0.18374 -1.69695,-0.3009 -2.76726,-0.40965 -1.07028,-0.10868 -2.35692,-0.20856 -3.58965,-0.31857 -1.23274,-0.11009 -2.41101,-0.23042 -4.35286,-0.36867 -1.94185,-0.13819 -4.64734,-0.29431 -8.80574,-0.35295 -4.15842,-0.0586 -9.76897,-0.0199 -14.82277,-0.0424 -5.05381,-0.0225 -9.55004,-0.10617 -13.33827,-0.0733 -3.78823,0.0327 -6.86668,0.18211 -9.24738,0.27131 -2.3807,0.0892 -4.06178,0.11833 -5.667548,0.23633 -1.60574,0.11805 -3.13509,0.32487 -4.09757,0.51472 -0.96249,0.18986 -1.35675,0.36226 -1.78421,0.55678 -0.42744,0.19454 -0.88757,0.41064 -1.34878,0.73699 -0.46121,0.32636 -0.92406,0.76327 -1.26754,1.36585 -0.34349,0.60259 -0.56809,1.37156 -0.73853,2.15192 -0.17046,0.78036 -0.28698,1.57314 -0.40546,2.65144 -0.11851,1.07828 -0.23929,2.44305 -0.31897,4.08342 -0.0399,0.82018 -0.0696,1.7093 -0.0914,3.43704 z"
       id="path8775-8"
       inkscape:connector-curvature="0"
       sodipodi:nodetypes="cccccccccssccssssccscccccccccsccccsccccccccscccccssccccc" />
  </g>
</svg>
