<?xml version="1.0" encoding="UTF-8" standalone="no"?>
<!-- Created with Inkscape (http://www.inkscape.org/) -->

<svg
   width="210mm"
   height="297mm"
   viewBox="0 0 210 297"
   version="1.1"
   id="svg1524"
   inkscape:version="1.2.2 (732a01da63, 2022-12-09)"
   sodipodi:docname="pod.svg"
   xmlns:inkscape="http://www.inkscape.org/namespaces/inkscape"
   xmlns:sodipodi="http://sodipodi.sourceforge.net/DTD/sodipodi-0.dtd"
   xmlns="http://www.w3.org/2000/svg"
   xmlns:svg="http://www.w3.org/2000/svg"
   xmlns:rdf="http://www.w3.org/1999/02/22-rdf-syntax-ns#"
   xmlns:cc="http://creativecommons.org/ns#"
   xmlns:dc="http://purl.org/dc/elements/1.1/">
  <defs
     id="defs1518" />
  <sodipodi:namedview
     id="base"
     pagecolor="#ffffff"
     bordercolor="#666666"
     borderopacity="1.0"
     inkscape:pageopacity="0.0"
     inkscape:pageshadow="2"
     inkscape:zoom="0.12374369"
     inkscape:cx="-4998.2348"
     inkscape:cy="-202.03051"
     inkscape:document-units="mm"
     inkscape:current-layer="layer1"
     showgrid="false"
     inkscape:window-width="3840"
     inkscape:window-height="2080"
     inkscape:window-x="1909"
     inkscape:window-y="-11"
     inkscape:window-maximized="1"
     inkscape:showpageshadow="2"
     inkscape:pagecheckerboard="0"
     inkscape:deskcolor="#d1d1d1" />
  <metadata
     id="metadata1521">
    <rdf:RDF>
      <cc:Work
         rdf:about="">
        <dc:format>image/svg+xml</dc:format>
        <dc:type
           rdf:resource="http://purl.org/dc/dcmitype/StillImage" />
      </cc:Work>
    </rdf:RDF>
  </metadata>
  <g
     inkscape:label="Layer 1"
     inkscape:groupmode="layer"
     id="layer1">
    <path
       inkscape:connector-curvature="0"
       id="path9536"
       d="m 137.09475,163.42341 c 27.44674,0 51.60111,-6.46709 52.50103,-43.44054 1.49538,-61.435474 -25.80169,-90.491284 -53.24843,-90.491284 -27.44673,0 -51.378912,28.49998 -49.322801,91.787804 1.20094,36.96505 22.623471,42.14402 50.070201,42.14402 z M 94.141395,106.30066 a 2.990713,2.9637882 0 0 1 -2.991012,-2.96408 2.990713,2.9637882 0 0 1 2.991012,-2.96338 2.990713,2.9637882 0 0 1 2.990284,2.96338 2.990713,2.9637882 0 0 1 -2.990284,2.96408 z m 86.722785,-0.71846 a 2.990713,2.9637882 0 0 1 -2.99029,-2.96409 2.990713,2.9637882 0 0 1 2.99029,-2.964084 2.990713,2.9637882 0 0 1 2.991,2.964084 2.990713,2.9637882 0 0 1 -2.991,2.96409 z"
       style="fill:#b4b4b4;fill-opacity:1;stroke:none;stroke-width:0.22313941;stroke-miterlimit:4;stroke-dasharray:none;stroke-opacity:1"
       transform="matrix(1.1857311,0,0,1.1857311,-58.88292,30.680917)" />
    <path
       sodipodi:nodetypes="cccccccccssccssssccscccccccccsccccsccccccccscccccssccccc"
       inkscape:connector-curvature="0"
       id="path8775-8"
       d="m 83.645225,191.57578 c 1.677973,0.0204 4.170269,0.0334 8.224557,0.0417 8.108563,0.0164 22.464728,0.0132 29.642978,0.0117 7.17826,-9.3e-4 7.17816,-9.3e-4 7.73438,-0.0174 0.55622,-0.0158 1.66987,-0.0469 2.67637,-0.18112 1.00652,-0.13429 1.90787,-0.37188 2.61612,-0.65126 0.70824,-0.27939 1.22511,-0.60161 1.63444,-0.93441 0.40933,-0.33278 0.71218,-0.67729 0.96168,-1.06241 0.2495,-0.38514 0.44666,-0.8122 0.60174,-1.3919 0.15509,-0.5797 0.26838,-1.31272 0.40523,-2.23916 0.13683,-0.92642 0.29738,-2.04706 0.44885,-3.40154 0.15146,-1.35448 0.29395,-2.94344 0.38797,-5.03243 0.0939,-2.08898 0.13939,-4.67848 0.19065,-7.94024 0.0512,-3.26179 0.10855,-7.19651 0.0794,-12.20213 -0.0291,-5.00564 -0.14441,-11.08274 -0.31426,-15.89569 -0.16986,-4.81294 -0.39441,-8.36292 -0.69064,-11.05649 -0.29622,-2.69357 -0.6642,-4.53225 -1.04548,-6.11544 -0.38127,-1.58318 -0.77586,-2.91201 -1.34133,-4.24198 -0.56547,-1.32997 -1.30666,-2.66951 -2.33951,-4.10111 -1.03287,-1.43159 -2.36647,-2.97197 -3.71326,-4.26773 -1.34677,-1.29575 -2.70687,-2.34679 -4.11082,-3.24544 -1.36652,-0.87472 -2.77086,-1.60167 -3.97451,-2.18528 -0.70822,-1.21086 -2.02184,-2.3617 -3.30942,-3.23519 -1.89757,-1.18411 -3.77168,-1.81464 -7.37342,-2.528833 l -8.84172,-0.02372 c -1.71075,1.003463 -2.993395,1.974893 -4.062251,2.744513 l -0.762179,0.52754 c -0.0944,9.3e-4 -0.17502,0.007 -0.267721,0.009 -1.776405,0.0363 -3.210092,0.1055 -4.484987,0.27847 -1.274905,0.17295 -1.99643,0.44131 -3.112282,0.77872 -1.115842,0.33742 -2.231674,0.73597 -3.284136,1.15551 -1.052451,0.41951 -2.040192,0.85928 -3.115544,1.45193 -1.075353,0.59264 -2.247437,1.34367 -3.373321,2.15694 -1.125914,0.81328 -2.224129,1.7013 -3.120003,2.55041 -0.895885,0.84914 -1.598131,1.67058 -2.210182,2.47503 -0.612051,0.80446 -1.154496,1.61509 -1.675972,2.47748 -0.521477,0.86237 -1.017207,1.7674 -1.423179,2.62474 -0.405962,0.85732 -0.712182,1.64928 -0.986944,2.44238 -0.274743,0.79309 -0.517281,1.58605 -0.69573,2.37991 -0.178448,0.79386 -0.292234,1.58484 -0.397852,2.58444 -0.10555,0.99957 -0.202554,2.20121 -0.309396,3.35251 -0.106919,1.1513 -0.223784,2.25173 -0.358052,4.06529 -0.134211,1.81356 -0.285834,4.34032 -0.342786,8.224 -0.05691,3.8837 -0.01933,9.1236 -0.04118,13.84353 -0.02185,4.71993 -0.103112,8.91912 -0.07119,12.45709 0.03176,3.53797 0.176866,6.41304 0.263497,8.63646 0.08663,2.22343 0.114922,3.79345 0.229524,5.29314 0.11465,1.49965 0.315514,2.92797 0.499896,3.82687 0.184393,0.8989 0.351828,1.26711 0.540746,1.66633 0.188937,0.39921 0.398814,0.82894 0.715765,1.25968 0.316961,0.43074 0.741289,0.86301 1.326515,1.1838 0.585236,0.3208 1.332061,0.53056 2.089947,0.68974 0.757886,0.1592 1.527835,0.26802 2.575081,0.37867 1.047227,0.11068 2.372693,0.22349 3.965822,0.2979 0.79656,0.0373 1.660074,0.065 3.338057,0.0854 z"
       style="display:inline;fill:#ffffff;fill-opacity:1;stroke:none;stroke-width:0.264583;stroke-linecap:butt;stroke-linejoin:miter;stroke-dasharray:none;stroke-opacity:1" />
  </g>
</svg>
