<?xml version="1.0" encoding="UTF-8" standalone="no"?>
<!-- Created with Inkscape (http://www.inkscape.org/) -->

<svg
   xmlns:osb="http://www.openswatchbook.org/uri/2009/osb"
   xmlns:dc="http://purl.org/dc/elements/1.1/"
   xmlns:cc="http://creativecommons.org/ns#"
   xmlns:rdf="http://www.w3.org/1999/02/22-rdf-syntax-ns#"
   xmlns:svg="http://www.w3.org/2000/svg"
   xmlns="http://www.w3.org/2000/svg"
   xmlns:sodipodi="http://sodipodi.sourceforge.net/DTD/sodipodi-0.dtd"
   xmlns:inkscape="http://www.inkscape.org/namespaces/inkscape"
   width="512"
   height="512"
   viewBox="0 0 135.46666 135.46667"
   version="1.1"
   id="svg8737"
   inkscape:version="0.92.4 (5da689c313, 2019-01-14)"
   sodipodi:docname="oc4.svg"
   inkscape:export-filename="C:\dev\OmniCore\Scratch\UI-UX\oc4-noborder512.png"
   inkscape:export-xdpi="96.000008"
   inkscape:export-ydpi="96.000008">
  <defs
     id="defs8731">
    <marker
       style="overflow:visible"
       inkscape:stockid="InfiniteLineEnd"
       id="InfiniteLineEnd"
       refX="0"
       refY="0"
       orient="auto"
       inkscape:isstock="true">
      <g
         id="g7750"
         style="fill:#e13c3c;fill-opacity:1;stroke:#e13c3c;stroke-opacity:1">
        <circle
           id="circle7744"
           r="0.80000001"
           cy="0"
           cx="3"
           style="fill:#e13c3c;fill-opacity:1;stroke:#e13c3c;stroke-opacity:1" />
        <circle
           id="circle7746"
           r="0.80000001"
           cy="0"
           cx="6.5"
           style="fill:#e13c3c;fill-opacity:1;stroke:#e13c3c;stroke-opacity:1" />
        <circle
           id="circle7748"
           r="0.80000001"
           cy="0"
           cx="10"
           style="fill:#e13c3c;fill-opacity:1;stroke:#e13c3c;stroke-opacity:1" />
      </g>
    </marker>
    <marker
       style="overflow:visible"
       inkscape:stockid="InfiniteLineStart"
       id="InfiniteLineStart"
       refX="0"
       refY="0"
       orient="auto"
       inkscape:isstock="true">
      <g
         id="g7759"
         style="fill:#e13c3c;fill-opacity:1;stroke:#e13c3c;stroke-opacity:1"
         transform="translate(-13)">
        <circle
           id="circle7753"
           r="0.80000001"
           cy="0"
           cx="3"
           style="fill:#e13c3c;fill-opacity:1;stroke:#e13c3c;stroke-opacity:1" />
        <circle
           id="circle7755"
           r="0.80000001"
           cy="0"
           cx="6.5"
           style="fill:#e13c3c;fill-opacity:1;stroke:#e13c3c;stroke-opacity:1" />
        <circle
           id="circle7757"
           r="0.80000001"
           cy="0"
           cx="10"
           style="fill:#e13c3c;fill-opacity:1;stroke:#e13c3c;stroke-opacity:1" />
      </g>
    </marker>
    <marker
       inkscape:stockid="Arrow2Sstart"
       orient="auto"
       refY="0"
       refX="0"
       id="Arrow2Sstart"
       style="overflow:visible"
       inkscape:isstock="true">
      <path
         id="path7539"
         style="fill:#000000;fill-opacity:1;fill-rule:evenodd;stroke:#000000;stroke-width:0.625;stroke-linejoin:round;stroke-opacity:1"
         d="M 8.7185878,4.0337352 -2.2072895,0.01601326 8.7185884,-4.0017078 c -1.7454984,2.3720609 -1.7354408,5.6174519 -6e-7,8.035443 z"
         transform="matrix(0.3,0,0,0.3,-0.69,0)"
         inkscape:connector-curvature="0" />
    </marker>
    <inkscape:path-effect
       effect="bspline"
       id="path-effect7507"
       is_visible="true"
       weight="33.333333"
       steps="2"
       helper_size="0"
       apply_no_weight="true"
       apply_with_weight="true"
       only_selected="false" />
    <inkscape:path-effect
       effect="bspline"
       id="path-effect7503"
       is_visible="true"
       weight="33.333333"
       steps="2"
       helper_size="0"
       apply_no_weight="true"
       apply_with_weight="true"
       only_selected="false" />
    <inkscape:path-effect
       effect="bspline"
       id="path-effect7499"
       is_visible="true"
       weight="33.333333"
       steps="2"
       helper_size="0"
       apply_no_weight="true"
       apply_with_weight="true"
       only_selected="false" />
    <linearGradient
       id="linearGradient7402"
       osb:paint="solid">
      <stop
         style="stop-color:#00ea00;stop-opacity:1;"
         offset="0"
         id="stop7400" />
    </linearGradient>
    <linearGradient
       id="linearGradient7330"
       osb:paint="solid">
      <stop
         style="stop-color:#489393;stop-opacity:1;"
         offset="0"
         id="stop7328" />
    </linearGradient>
    <inkscape:path-effect
       effect="simplify"
       id="path-effect9414"
       is_visible="true"
       steps="10"
       threshold="0.002"
       smooth_angles="20"
       helper_size="5"
       simplify_individual_paths="true"
       simplify_just_coalesce="false" />
    <inkscape:path-effect
       effect="bspline"
       id="path-effect8777"
       is_visible="true"
       weight="33.333333"
       steps="2"
       helper_size="0"
       apply_no_weight="true"
       apply_with_weight="true"
       only_selected="false" />
    <inkscape:path-effect
       effect="bspline"
       id="path-effect8753"
       is_visible="true"
       weight="33.333333"
       steps="2"
       helper_size="0"
       apply_no_weight="true"
       apply_with_weight="true"
       only_selected="false" />
    <inkscape:path-effect
       effect="bspline"
       id="path-effect8753-2"
       is_visible="true"
       weight="33.333333"
       steps="2"
       helper_size="0"
       apply_no_weight="true"
       apply_with_weight="true"
       only_selected="false" />
    <filter
       style="color-interpolation-filters:sRGB"
       inkscape:label="Matte Jelly"
       id="filter10200">
      <feColorMatrix
         values="1 0 0 0 0 0 1 0 0 0 0 0 1 0 0 0 0 0 0.85 0"
         result="color"
         in="SourceGraphic"
         id="feColorMatrix10188" />
      <feGaussianBlur
         in="SourceAlpha"
         stdDeviation="7"
         result="blur"
         id="feGaussianBlur10190" />
      <feSpecularLighting
         in="blur"
         specularExponent="25"
         specularConstant="0.89999998"
         surfaceScale="5"
         lighting-color="#89ffff"
         result="specular"
         id="feSpecularLighting10194">
        <feDistantLight
           elevation="60"
           azimuth="225"
           id="feDistantLight10192" />
      </feSpecularLighting>
      <feComposite
         in="specular"
         in2="SourceGraphic"
         k3="1"
         k2="1"
         operator="arithmetic"
         result="composite1"
         id="feComposite10196"
         k1="0"
         k4="0" />
      <feComposite
         in="composite1"
         in2="color"
         operator="atop"
         result="composite2"
         id="feComposite10198" />
    </filter>
  </defs>
  <sodipodi:namedview
     id="base"
     pagecolor="#ffffff"
     bordercolor="#666666"
     borderopacity="1.0"
     inkscape:pageopacity="0.0"
     inkscape:pageshadow="2"
     inkscape:zoom="1"
     inkscape:cx="338.09165"
     inkscape:cy="218.99994"
     inkscape:document-units="mm"
     inkscape:current-layer="layer6"
     showgrid="false"
     inkscape:window-width="3840"
     inkscape:window-height="2081"
     inkscape:window-x="-9"
     inkscape:window-y="-9"
     inkscape:window-maximized="1"
     units="px"
     fit-margin-top="0"
     fit-margin-left="0"
     fit-margin-right="0"
     fit-margin-bottom="0">
    <inkscape:grid
       type="xygrid"
       id="grid9626"
       originx="-125.93382"
       originy="-256.62735" />
  </sodipodi:namedview>
  <metadata
     id="metadata8734">
    <rdf:RDF>
      <cc:Work
         rdf:about="">
        <dc:format>image/svg+xml</dc:format>
        <dc:type
           rdf:resource="http://purl.org/dc/dcmitype/StillImage" />
        <dc:title></dc:title>
      </cc:Work>
    </rdf:RDF>
  </metadata>
  <g
     inkscape:groupmode="layer"
     id="layer6"
     inkscape:label="Layer 4"
     transform="translate(-55.527615,-38.520801)">
    <path
       style="fill:#feffff;fill-opacity:1;stroke:#000000;stroke-width:1.08299994;stroke-miterlimit:4;stroke-dasharray:none;stroke-opacity:1"
       d="m 122.73106,173.46097 c 27.44673,0 51.6011,-6.4671 52.50102,-43.44055 1.49538,-61.43547 -25.80169,-90.491281 -53.24842,-90.491281 -27.446745,0 -51.378928,28.49998 -49.322817,91.787801 1.20094,36.96506 22.623472,42.14403 50.070217,42.14403 z M 79.777689,116.33821 a 2.9907129,2.9637882 0 0 1 -2.991013,-2.96408 2.9907129,2.9637882 0 0 1 2.991013,-2.96337 2.9907129,2.9637882 0 0 1 2.990284,2.96337 2.9907129,2.9637882 0 0 1 -2.990284,2.96408 z m 86.722791,-0.71846 a 2.9907129,2.9637882 0 0 1 -2.99029,-2.96409 2.9907129,2.9637882 0 0 1 2.99029,-2.96408 2.9907129,2.9637882 0 0 1 2.99099,2.96408 2.9907129,2.9637882 0 0 1 -2.99099,2.96409 z"
       id="path9536-2"
       inkscape:connector-curvature="0" />
    <path
       style="display:inline;fill:#aaf8f5;fill-opacity:1;stroke:#000000;stroke-width:0.90499997;stroke-linecap:butt;stroke-linejoin:miter;stroke-miterlimit:4;stroke-dasharray:none;stroke-opacity:1"
       d="m 120.39622,114.72322 c 0.95645,0.0122 2.37708,0.02 4.68803,0.0249 4.62193,0.01 12.80499,0.008 16.89662,0.007 4.09162,-5.3e-4 4.09157,-5.3e-4 4.40861,-0.0104 0.31706,-0.009 0.95184,-0.0281 1.52555,-0.10845 0.57372,-0.0804 1.08749,-0.22266 1.49118,-0.38993 0.40371,-0.1673 0.69832,-0.36022 0.93164,-0.55948 0.23332,-0.19925 0.40595,-0.40552 0.54817,-0.63609 0.14221,-0.2306 0.2546,-0.48631 0.343,-0.83339 0.0884,-0.3471 0.15297,-0.78598 0.23097,-1.34066 0.078,-0.55468 0.16951,-1.22565 0.25585,-2.03663 0.0863,-0.81099 0.16755,-1.76235 0.22115,-3.0131 0.0535,-1.25076 0.0794,-2.80119 0.10867,-4.75412 0.0292,-1.952954 0.0619,-4.308824 0.0453,-7.305871 -0.0166,-2.997051 -0.0823,-6.635641 -0.17913,-9.517332 -0.0968,-2.88168 -0.22482,-5.007178 -0.39366,-6.61992 -0.16886,-1.612738 -0.3786,-2.71363 -0.59594,-3.661539 -0.21731,-0.94791 -0.44223,-1.74353 -0.76455,-2.539831 -0.32233,-0.796308 -0.7448,-1.598329 -1.33353,-2.455489 -0.58874,-0.857129 -1.34889,-1.779411 -2.11657,-2.55523 -0.76767,-0.775819 -1.54294,-1.40512 -2.34318,-1.943169 -0.77892,-0.523732 -1.57941,-0.958982 -2.26549,-1.308412 -0.40368,-0.72499 -1.15245,-1.414028 -1.88638,-1.93702 -1.08162,-0.708969 -2.14987,-1.086499 -4.20287,-1.514109 l -5.03981,-0.0142 c -0.97514,0.6008 -1.70625,1.18244 -2.3155,1.643239 l -0.43445,0.315852 c -0.0538,5.29e-4 -0.0998,0.004 -0.15259,0.006 -1.01257,0.0217 -1.82977,0.0632 -2.55647,0.166732 -0.72671,0.103558 -1.13797,0.264229 -1.77401,0.466249 -0.63604,0.202031 -1.27207,0.440661 -1.87198,0.691851 -0.59989,0.25118 -1.16291,0.51448 -1.77587,0.86932 -0.61295,0.354838 -1.28105,0.8045 -1.9228,1.29144 -0.64178,0.486939 -1.26775,1.018629 -1.77842,1.527029 -0.51065,0.5084 -0.91094,1.000231 -1.25981,1.481889 -0.34887,0.481661 -0.65806,0.967012 -0.95531,1.483352 -0.29724,0.51634 -0.57981,1.058209 -0.81121,1.57153 -0.2314,0.51331 -0.40595,0.987488 -0.56257,1.462349 -0.1566,0.474851 -0.29485,0.949622 -0.39656,1.42493 -0.10172,0.475321 -0.16658,0.948909 -0.22678,1.54741 -0.0602,0.59848 -0.11546,1.31794 -0.17636,2.007261 -0.0609,0.68933 -0.12756,1.34819 -0.20409,2.43404 -0.0765,1.08585 -0.16293,2.598708 -0.19539,4.92402 -0.0324,2.325309 -0.011,5.46263 -0.0235,8.288618 -0.0125,2.825997 -0.0588,5.340217 -0.0406,7.458521 0.0181,2.11831 0.10082,3.83972 0.1502,5.17098 0.0494,1.33123 0.0655,2.27126 0.13083,3.16918 0.0653,0.8979 0.17984,1.75308 0.28494,2.29129 0.1051,0.5382 0.20054,0.75866 0.30822,0.99769 0.1077,0.23902 0.22733,0.49632 0.40799,0.75422 0.18067,0.2579 0.42254,0.51672 0.75612,0.70878 0.33359,0.19208 0.75928,0.31767 1.19128,0.41298 0.43201,0.0953 0.87087,0.16047 1.46781,0.22672 0.59692,0.0663 1.35244,0.13382 2.26053,0.17837 0.45405,0.0223 0.94624,0.0389 1.9027,0.0511 z"
       id="path8775-8-4-3"
       inkscape:connector-curvature="0"
       sodipodi:nodetypes="cccccccccssccssssccscccccccccsccccsccccccccscccccssccccc" />
    <path
       style="display:inline;fill:#f8aaf1;fill-opacity:1;stroke:#000000;stroke-width:0.90499997;stroke-linecap:butt;stroke-linejoin:miter;stroke-miterlimit:4;stroke-dasharray:none;stroke-opacity:1"
       d="m 123.58626,103.69931 c -0.95645,-0.0122 -2.37707,-0.02 -4.68803,-0.0249 -4.62192,-0.01 -12.80498,-0.008 -16.89661,-0.007 -4.091625,5.3e-4 -4.091575,5.3e-4 -4.408625,0.0104 -0.31705,0.009 -0.95183,0.0281 -1.52554,0.10845 -0.57373,0.0804 -1.08749,0.22266 -1.4912,0.38993 -0.40369,0.16729 -0.69832,0.36021 -0.93164,0.55947 -0.23332,0.19925 -0.40595,0.40552 -0.54815,0.6361 -0.14223,0.2306 -0.2546,0.4863 -0.343,0.83339 -0.0884,0.34709 -0.15298,0.78597 -0.23099,1.34066 -0.078,0.55468 -0.1695,1.22565 -0.25583,2.03663 -0.0863,0.81099 -0.16757,1.76235 -0.22115,3.01311 -0.0535,1.25075 -0.0794,2.80118 -0.10867,4.7541 -0.0292,1.95296 -0.0619,4.30882 -0.0453,7.30587 0.0166,2.99705 0.0823,6.63564 0.17914,9.51733 0.0968,2.88168 0.22481,5.00718 0.39367,6.61992 0.16885,1.61274 0.3786,2.71363 0.59593,3.66154 0.21732,0.94791 0.44224,1.74353 0.76456,2.53983 0.32231,0.79631 0.7448,1.59833 1.33353,2.45549 0.58874,0.85713 1.34889,1.77941 2.11656,2.55523 0.76767,0.77582 1.54293,1.40512 2.343193,1.94317 0.778922,0.52373 1.579392,0.95898 2.265472,1.30841 0.4037,0.72499 1.15247,1.41403 1.88639,1.93702 1.08163,0.70897 2.14988,1.0865 4.20288,1.51411 l 5.03981,0.0142 c 0.97514,-0.6008 1.70625,-1.18244 2.31549,-1.64324 l 0.43444,-0.31585 c 0.0538,-5.3e-4 0.0998,-0.004 0.15261,-0.006 1.01256,-0.0217 1.82976,-0.0632 2.55647,-0.16673 0.7267,-0.10356 1.13797,-0.26423 1.77401,-0.46625 0.63603,-0.20203 1.27205,-0.44066 1.87197,-0.69185 0.5999,-0.25118 1.16292,-0.51448 1.77587,-0.86932 0.61295,-0.35484 1.28104,-0.8045 1.92279,-1.29144 0.64179,-0.48694 1.26777,-1.01863 1.77842,-1.52703 0.51066,-0.5084 0.91095,-1.00023 1.25982,-1.48189 0.34886,-0.48166 0.65806,-0.96701 0.95531,-1.48335 0.29724,-0.51634 0.57981,-1.05821 0.81121,-1.57153 0.23139,-0.51331 0.40595,-0.98749 0.56257,-1.46235 0.15659,-0.47485 0.29484,-0.94962 0.39656,-1.42493 0.10171,-0.47532 0.16657,-0.94891 0.22678,-1.54741 0.0602,-0.59848 0.11545,-1.31794 0.17636,-2.00726 0.0609,-0.68933 0.12755,-1.34819 0.20409,-2.43404 0.0765,-1.08585 0.16293,-2.59871 0.19538,-4.92402 0.0324,-2.32531 0.011,-5.46263 0.0235,-8.28862 0.0125,-2.826 0.0588,-5.34021 0.0406,-7.45852 -0.0181,-2.11831 -0.10082,-3.83972 -0.1502,-5.17097 -0.0494,-1.33124 -0.0655,-2.27127 -0.13083,-3.16919 -0.0653,-0.8979 -0.17984,-1.75308 -0.28494,-2.29129 -0.1051,-0.5382 -0.20054,-0.75866 -0.30822,-0.99769 -0.1077,-0.23902 -0.22733,-0.49632 -0.40799,-0.75422 -0.18067,-0.2579 -0.42254,-0.51672 -0.75612,-0.70878 -0.33359,-0.19208 -0.75928,-0.31767 -1.19128,-0.41298 -0.432,-0.0953 -0.87087,-0.16047 -1.4678,-0.22671 -0.59693,-0.0663 -1.35245,-0.13382 -2.26054,-0.17838 -0.45404,-0.0223 -0.94624,-0.0389 -1.9027,-0.0511 z"
       id="path8775-8-4-9-2"
       inkscape:connector-curvature="0"
       sodipodi:nodetypes="cccccccccssccssssccscccccccccsccccsccccccccscccccssccccc" />
  </g>
</svg>
