<?xml version="1.0" encoding="UTF-8" standalone="no"?>
<!-- Created with Inkscape (http://www.inkscape.org/) -->

<svg
   xmlns:dc="http://purl.org/dc/elements/1.1/"
   xmlns:cc="http://creativecommons.org/ns#"
   xmlns:rdf="http://www.w3.org/1999/02/22-rdf-syntax-ns#"
   xmlns:svg="http://www.w3.org/2000/svg"
   xmlns="http://www.w3.org/2000/svg"
   xmlns:xlink="http://www.w3.org/1999/xlink"
   xmlns:sodipodi="http://sodipodi.sourceforge.net/DTD/sodipodi-0.dtd"
   xmlns:inkscape="http://www.inkscape.org/namespaces/inkscape"
   width="607.43884"
   height="466.03131"
   viewBox="0 0 160.71818 123.30413"
   version="1.1"
   id="svg8737"
   inkscape:version="0.92.4 (5da689c313, 2019-01-14)"
   sodipodi:docname="OmniCore_2.svg"
   inkscape:export-filename="C:\dev\OmniCore\OmniCore.Scratch\UI-UX\pod-drawing.png"
   inkscape:export-xdpi="96"
   inkscape:export-ydpi="96">
  <defs
     id="defs8731">
    <linearGradient
       inkscape:collect="always"
       id="linearGradient5531">
      <stop
         style="stop-color:#000000;stop-opacity:1;"
         offset="0"
         id="stop5527" />
      <stop
         style="stop-color:#000000;stop-opacity:0;"
         offset="1"
         id="stop5529" />
    </linearGradient>
    <inkscape:path-effect
       effect="simplify"
       id="path-effect9414"
       is_visible="true"
       steps="10"
       threshold="0.002"
       smooth_angles="20"
       helper_size="5"
       simplify_individual_paths="true"
       simplify_just_coalesce="false" />
    <inkscape:path-effect
       effect="bspline"
       id="path-effect8777"
       is_visible="true"
       weight="33.333333"
       steps="2"
       helper_size="0"
       apply_no_weight="true"
       apply_with_weight="true"
       only_selected="false" />
    <inkscape:path-effect
       effect="bspline"
       id="path-effect8753"
       is_visible="true"
       weight="33.333333"
       steps="2"
       helper_size="0"
       apply_no_weight="true"
       apply_with_weight="true"
       only_selected="false" />
    <inkscape:path-effect
       effect="bspline"
       id="path-effect8753-2"
       is_visible="true"
       weight="33.333333"
       steps="2"
       helper_size="0"
       apply_no_weight="true"
       apply_with_weight="true"
       only_selected="false" />
    <filter
       style="color-interpolation-filters:sRGB"
       inkscape:label="Matte Jelly"
       id="filter10200">
      <feColorMatrix
         values="1 0 0 0 0 0 1 0 0 0 0 0 1 0 0 0 0 0 0.85 0"
         result="color"
         in="SourceGraphic"
         id="feColorMatrix10188" />
      <feGaussianBlur
         in="SourceAlpha"
         stdDeviation="7"
         result="blur"
         id="feGaussianBlur10190" />
      <feSpecularLighting
         in="blur"
         specularExponent="25"
         specularConstant="0.89999998"
         surfaceScale="5"
         lighting-color="#89ffff"
         result="specular"
         id="feSpecularLighting10194">
        <feDistantLight
           elevation="60"
           azimuth="225"
           id="feDistantLight10192" />
      </feSpecularLighting>
      <feComposite
         in="specular"
         in2="SourceGraphic"
         k3="1"
         k2="1"
         operator="arithmetic"
         result="composite1"
         id="feComposite10196"
         k1="0"
         k4="0" />
      <feComposite
         in="composite1"
         in2="color"
         operator="atop"
         result="composite2"
         id="feComposite10198" />
    </filter>
    <filter
       x="-0.25"
       width="1.5"
       y="-0.25"
       height="1.5"
       inkscape:menu-tooltip="Smooth rainbow colors melted along the edges and colorizable"
       inkscape:menu="Textures"
       inkscape:label="Tinted Rainbow"
       style="color-interpolation-filters:sRGB"
       id="filter5367">
      <feGaussianBlur
         result="result8"
         stdDeviation="5"
         id="feGaussianBlur5355" />
      <feTurbulence
         baseFrequency="0.015"
         numOctaves="2"
         type="fractalNoise"
         result="result7"
         seed="20"
         id="feTurbulence5357" />
      <feComposite
         in="SourceGraphic"
         operator="in"
         result="result6"
         in2="result8"
         id="feComposite5359" />
      <feComposite
         in="result6"
         operator="arithmetic"
         result="result2"
         in2="result7"
         k3="1.7"
         id="feComposite5361"
         k1="0"
         k2="0"
         k4="0" />
      <feComposite
         in2="result6"
         operator="in"
         in="result2"
         result="fbSourceGraphic"
         id="feComposite5363" />
      <feComposite
         in2="SourceGraphic"
         in="fbSourceGraphic"
         k3="0.3"
         k2="1.5"
         operator="arithmetic"
         result="result9"
         id="feComposite5365"
         k1="0"
         k4="0" />
    </filter>
    <filter
       inkscape:label="Blur Double"
       inkscape:menu="Blurs"
       inkscape:menu-tooltip="Overlays two copies with different blur amounts and modifiable blend and composite"
       style="color-interpolation-filters:sRGB"
       id="filter5487">
      <feGaussianBlur
         stdDeviation="5"
         result="fbSourceGraphic"
         id="feGaussianBlur5479" />
      <feGaussianBlur
         stdDeviation="0.01"
         in="SourceGraphic"
         result="result1"
         id="feGaussianBlur5481" />
      <feComposite
         in2="result1"
         operator="arithmetic"
         in="fbSourceGraphic"
         k2="0.5"
         k3="0.5"
         result="result2"
         id="feComposite5483"
         k1="0"
         k4="0" />
      <feBlend
         in2="fbSourceGraphic"
         mode="normal"
         result="result3"
         id="feBlend5485" />
    </filter>
    <filter
       style="color-interpolation-filters:sRGB"
       inkscape:label="Cross Blur"
       id="filter5499">
      <feColorMatrix
         in="SourceGraphic"
         values="1 0 0 0 0 0 1 0 0 0 0 0 1 0 0 -0.2125 -0.7154 -0.0721 1 0 "
         result="colormatrix"
         id="feColorMatrix5489" />
      <feComposite
         in="SourceGraphic"
         in2="colormatrix"
         operator="arithmetic"
         k2="1"
         k3="0"
         k4="0"
         result="composite"
         id="feComposite5491"
         k1="0" />
      <feGaussianBlur
         stdDeviation="5 0.01"
         result="blur1"
         id="feGaussianBlur5493" />
      <feGaussianBlur
         in="composite"
         stdDeviation="0.01 5"
         result="blur2"
         id="feGaussianBlur5495" />
      <feBlend
         in="blur2"
         in2="blur1"
         mode="darken"
         result="blend"
         id="feBlend5497" />
    </filter>
    <linearGradient
       inkscape:collect="always"
       xlink:href="#linearGradient5531"
       id="linearGradient5533"
       x1="-1152.084"
       y1="-348.17609"
       x2="-1085.1309"
       y2="-348.17609"
       gradientUnits="userSpaceOnUse" />
    <filter
       x="-0.25"
       width="1.5"
       y="-0.25"
       height="1.5"
       inkscape:menu-tooltip="Smooth rainbow colors melted along the edges and colorizable"
       inkscape:menu="Textures"
       inkscape:label="Tinted Rainbow"
       style="color-interpolation-filters:sRGB"
       id="filter5367-6">
      <feGaussianBlur
         result="result8"
         stdDeviation="5"
         id="feGaussianBlur5355-1" />
      <feTurbulence
         baseFrequency="0.015"
         numOctaves="2"
         type="fractalNoise"
         result="result7"
         seed="20"
         id="feTurbulence5357-5" />
      <feComposite
         in="SourceGraphic"
         operator="in"
         result="result6"
         in2="result8"
         id="feComposite5359-8" />
      <feComposite
         k4="0"
         k2="0"
         k1="0"
         in="result6"
         operator="arithmetic"
         result="result2"
         in2="result7"
         k3="1.7"
         id="feComposite5361-9" />
      <feComposite
         in2="result6"
         operator="in"
         in="result2"
         result="fbSourceGraphic"
         id="feComposite5363-7" />
      <feComposite
         k4="0"
         k1="0"
         in2="SourceGraphic"
         in="fbSourceGraphic"
         k3="0.3"
         k2="1.5"
         operator="arithmetic"
         result="result9"
         id="feComposite5365-9" />
    </filter>
    <filter
       x="-0.25"
       width="1.5"
       y="-0.25"
       height="1.5"
       inkscape:menu-tooltip="Smooth rainbow colors melted along the edges and colorizable"
       inkscape:menu="Textures"
       inkscape:label="Tinted Rainbow"
       style="color-interpolation-filters:sRGB"
       id="filter5367-0">
      <feGaussianBlur
         result="result8"
         stdDeviation="5"
         id="feGaussianBlur5355-4" />
      <feTurbulence
         baseFrequency="0.015"
         numOctaves="2"
         type="fractalNoise"
         result="result7"
         seed="20"
         id="feTurbulence5357-2" />
      <feComposite
         in="SourceGraphic"
         operator="in"
         result="result6"
         in2="result8"
         id="feComposite5359-1" />
      <feComposite
         k4="0"
         k2="0"
         k1="0"
         in="result6"
         operator="arithmetic"
         result="result2"
         in2="result7"
         k3="1.7"
         id="feComposite5361-7" />
      <feComposite
         in2="result6"
         operator="in"
         in="result2"
         result="fbSourceGraphic"
         id="feComposite5363-1" />
      <feComposite
         k4="0"
         k1="0"
         in2="SourceGraphic"
         in="fbSourceGraphic"
         k3="0.3"
         k2="1.5"
         operator="arithmetic"
         result="result9"
         id="feComposite5365-4" />
    </filter>
  </defs>
  <sodipodi:namedview
     id="base"
     pagecolor="#ffffff"
     bordercolor="#666666"
     borderopacity="1.0"
     inkscape:pageopacity="0.0"
     inkscape:pageshadow="2"
     inkscape:zoom="0.7"
     inkscape:cx="-173.07746"
     inkscape:cy="86.750864"
     inkscape:document-units="mm"
     inkscape:current-layer="layer2"
     showgrid="false"
     inkscape:window-width="1920"
     inkscape:window-height="1017"
     inkscape:window-x="-8"
     inkscape:window-y="-8"
     inkscape:window-maximized="1"
     units="px"
     fit-margin-top="0"
     fit-margin-left="0"
     fit-margin-right="0"
     fit-margin-bottom="0">
    <inkscape:grid
       type="xygrid"
       id="grid9626"
       originx="-128.05763"
       originy="-269.56541" />
  </sodipodi:namedview>
  <metadata
     id="metadata8734">
    <rdf:RDF>
      <cc:Work
         rdf:about="">
        <dc:format>image/svg+xml</dc:format>
        <dc:type
           rdf:resource="http://purl.org/dc/dcmitype/StillImage" />
        <dc:title></dc:title>
      </cc:Work>
    </rdf:RDF>
  </metadata>
  <g
     inkscape:groupmode="layer"
     id="layer6"
     inkscape:label="Layer 4"
     transform="translate(-57.651459,-37.745396)"
     style="display:inline">
    <path
       style="fill:#f8c6e6;fill-opacity:1;stroke:#000000;stroke-width:0.38291663;stroke-miterlimit:4;stroke-dasharray:none;stroke-opacity:1;filter:url(#filter5499)"
       d="m 137.09475,163.42341 c 27.44674,0 51.60111,-6.46709 52.50103,-43.44054 1.49538,-61.435474 -25.80169,-90.491284 -53.24843,-90.491284 -27.44673,0 -51.378912,28.49998 -49.322801,91.787804 1.20094,36.96505 22.623471,42.14402 50.070201,42.14402 z M 94.141395,106.30066 a 2.990713,2.9637882 0 0 1 -2.991012,-2.96408 2.990713,2.9637882 0 0 1 2.991012,-2.96338 2.990713,2.9637882 0 0 1 2.990284,2.96338 2.990713,2.9637882 0 0 1 -2.990284,2.96408 z m 86.722785,-0.71846 a 2.990713,2.9637882 0 0 1 -2.99029,-2.96409 2.990713,2.9637882 0 0 1 2.99029,-2.964084 2.990713,2.9637882 0 0 1 2.991,2.964084 2.990713,2.9637882 0 0 1 -2.991,2.96409 z"
       id="path9536"
       inkscape:connector-curvature="0"
       transform="rotate(-90,139.61417,98.061114)" />
    <path
       style="display:inline;fill:#fdf1f5;fill-opacity:1;stroke:none;stroke-width:0.3684122px;stroke-linecap:butt;stroke-linejoin:miter;stroke-opacity:1;filter:url(#filter5487)"
       d="m 117.26826,145.33711 c 1.72773,0.0218 4.29393,0.0358 8.46844,0.0446 8.34901,0.0176 23.13087,0.0141 30.52198,0.0125 7.39111,-10e-4 7.39101,-10e-4 7.96372,-0.0186 0.57272,-0.0169 1.71939,-0.0502 2.75574,-0.19394 1.03636,-0.14378 1.96444,-0.39818 2.69369,-0.69732 0.72924,-0.29916 1.26144,-0.64417 1.68291,-1.00051 0.42147,-0.35632 0.7333,-0.7252 0.99019,-1.13756 0.2569,-0.41238 0.45991,-0.86965 0.61959,-1.49036 0.15969,-0.62071 0.27634,-1.40558 0.41724,-2.39755 0.14089,-0.99195 0.3062,-2.19186 0.46216,-3.64215 0.15596,-1.4503 0.30267,-3.15165 0.39948,-5.38841 0.0967,-2.23675 0.14352,-5.00942 0.1963,-8.50191 0.0527,-3.49252 0.11177,-7.70557 0.0818,-13.06527 -0.03,-5.35972 -0.14869,-11.866701 -0.32358,-17.020101 -0.1749,-5.15339 -0.40611,-8.95448 -0.71112,-11.83859 -0.30501,-2.8841 -0.6839,-4.85285 -1.07648,-6.54802 -0.39258,-1.69517 -0.79887,-3.118 -1.38111,-4.54205 -0.58224,-1.42405 -1.3454,-2.85834 -2.40888,-4.39121 -1.0635,-1.53285 -2.43664,-3.18219 -3.82337,-4.56961 -1.38671,-1.38741 -2.78714,-2.5128 -4.23272,-3.47501 -1.40704,-0.9366 -2.85302,-1.71497 -4.09236,-2.33986 -0.72922,-1.29652 -2.0818,-2.52876 -3.40756,-3.46404 -1.95384,-1.26787 -3.88352,-1.94301 -7.59206,-2.70772 l -9.10391,-0.0254 c -1.76148,1.07444 -3.08215,2.1146 -4.1827,2.93866 l -0.78478,0.56485 c -0.0972,10e-4 -0.18021,0.007 -0.27566,0.01 -1.82908,0.0389 -3.30528,0.11297 -4.61798,0.29817 -1.31271,0.18519 -2.05563,0.47253 -3.20457,0.83381 -1.14893,0.36128 -2.29785,0.78803 -3.38152,1.23724 -1.08366,0.44919 -2.10069,0.92006 -3.20793,1.55464 -1.10724,0.63456 -2.31408,1.43871 -3.47335,2.30951 -1.1593,0.87081 -2.29008,1.82165 -3.21252,2.73082 -0.92245,0.9092 -1.64552,1.78875 -2.27572,2.65011 -0.6302,0.86136 -1.18873,1.72933 -1.72567,2.65272 -0.53694,0.92338 -1.04737,1.89243 -1.46538,2.81041 -0.418,0.91796 -0.7333,1.76595 -1.01621,2.61515 -0.28289,0.84919 -0.53262,1.69824 -0.71636,2.54825 -0.18374,0.85002 -0.3009,1.69695 -0.40965,2.76726 -0.10868,1.07028 -0.20856,2.35692 -0.31857,3.58965 -0.11009,1.23274 -0.23042,2.41101 -0.36867,4.35286 -0.13819,1.94185 -0.29431,4.64734 -0.35295,8.80574 -0.0586,4.15842 -0.0199,9.768971 -0.0424,14.822771 -0.0225,5.05381 -0.10617,9.55004 -0.0733,13.33827 0.0327,3.78823 0.18211,6.86668 0.27131,9.24738 0.0892,2.3807 0.11833,4.06178 0.23633,5.66755 0.11805,1.60574 0.32487,3.13509 0.51472,4.09757 0.18986,0.96249 0.36226,1.35675 0.55678,1.78421 0.19454,0.42744 0.41064,0.88757 0.73699,1.34878 0.32636,0.46121 0.76327,0.92406 1.36585,1.26754 0.60259,0.34349 1.37156,0.56809 2.15192,0.73853 0.78036,0.17046 1.57314,0.28698 2.65144,0.40546 1.07828,0.11851 2.44305,0.23929 4.08342,0.31897 0.82018,0.0399 1.7093,0.0696 3.43704,0.0914 z"
       id="path8775-8"
       inkscape:connector-curvature="0"
       sodipodi:nodetypes="cccccccccssccssssccscccccccccsccccsccccccccscccccssccccc"
       transform="rotate(-90,139.22859,97.770924)" />
    <flowRoot
       xml:space="preserve"
       id="flowRoot461"
       style="font-style:normal;font-weight:normal;font-size:40px;line-height:1.25;font-family:sans-serif;letter-spacing:0px;word-spacing:0px;fill:#000000;fill-opacity:1;stroke:none"
       transform="matrix(0.26458333,0,0,0.26458333,47.046177,4.6362746)"><flowRegion
         id="flowRegion463"><rect
           id="rect465"
           width="278.80209"
           height="207.08127"
           x="234.35539"
           y="252.76704" /></flowRegion><flowPara
         style="font-style:normal;font-variant:normal;font-weight:normal;font-stretch:normal;font-size:64px;line-height:1.25;font-family:'Segoe UI Historic';-inkscape-font-specification:'Segoe UI Historic'"
         id="flowPara473">OMNICOR</flowPara></flowRoot>  </g>
  <g
     inkscape:groupmode="layer"
     id="layer2"
     inkscape:label="Layer 6"
     style="display:inline"
     transform="translate(-10.605283,-33.109121)" />
</svg>
